# xmcd CD database file
#
# Track frame offsets:
#	150
#	11490
#	28138
#	49290
#	74828
#	91203
#	107268
#	128268
#	151520
#	168842
#
# Disc length: 2466 seconds
#
# Revision: 0
# Processed by: cddbd v1.5.1PL0 Copyright (c) Steve Scherf et al.
# Submitted via: CDex 1.50
#
DISCID=6e09a00a
DTITLE=Santara - RIVERMOUTH REVUE
DYEAR=2004
DGENRE=INTERNATIONAL(POPS)
TTITLE0=密会
TTITLE1=バニラ
TTITLE2=独白
TTITLE3=ブラックワゴン
TTITLE4=街が死んだら
TTITLE5=しゃぼんのブルース
TTITLE6=うそつきレノン(album version)
TTITLE7=Big River
TTITLE8=charms
TTITLE9=鶏頭のブルース
EXTD=YEAR: 2004
EXTT0=
EXTT1=
EXTT2=
EXTT3=
EXTT4=
EXTT5=
EXTT6=
EXTT7=
EXTT8=
EXTT9=
PLAYORDER=
